<?xml version="1.0" standalone="no"?>
<!DOCTYPE svg PUBLIC "-//W3C//DTD SVG 20010904//EN"
 "http://www.w3.org/TR/2001/REC-SVG-20010904/DTD/svg10.dtd">
<svg version="1.0" xmlns="http://www.w3.org/2000/svg"
 width="700.000000pt" height="700.000000pt" viewBox="0 0 700.000000 700.000000"
 preserveAspectRatio="xMidYMid meet">
<metadata>
Created by potrace 1.14, written by Peter Selinger 2001-2017
</metadata>
<g transform="translate(0.000000,700.000000) scale(0.100000,-0.100000)"
fill="#000000" stroke="none">
<path d="M624 5755 c-251 -56 -473 -244 -571 -485 -55 -137 -53 -68 -53 -1770
0 -1702 -2 -1633 53 -1770 79 -194 250 -367 439 -443 153 -61 -49 -57 3008
-57 3056 0 2855 -4 3007 57 188 75 361 249 437 438 58 146 56 68 56 1775 0
1702 2 1632 -54 1772 -78 193 -250 365 -441 442 -149 60 49 56 -3013 55 -2300
-1 -2818 -3 -2868 -14z m5447 -545 c89 -16 190 -72 251 -139 60 -64 90 -121
113 -208 23 -87 22 -2640 0 -2728 -46 -177 -188 -312 -364 -345 -73 -14 -5067
-14 -5142 0 -89 16 -190 72 -251 139 -60 64 -90 121 -113 208 -22 86 -22 2640
0 2726 23 87 53 144 113 208 59 64 161 122 242 138 65 13 5083 14 5151 1z"/>
<path d="M1297 4810 c-123 -22 -245 -114 -298 -225 -45 -95 -51 -150 -47 -454
4 -308 6 -315 76 -393 107 -119 297 -118 405 2 65 72 71 93 75 300 3 150 7
188 19 203 14 15 37 17 183 17 201 0 246 11 318 75 69 62 96 127 90 220 -8
113 -60 190 -163 237 -48 22 -61 23 -330 25 -154 1 -302 -2 -328 -7z"/>
<path d="M5655 3326 c-56 -26 -119 -89 -143 -145 -12 -28 -17 -79 -20 -221 -3
-150 -7 -188 -19 -202 -14 -16 -37 -18 -183 -18 -201 0 -246 -11 -318 -75 -69
-62 -96 -127 -90 -220 8 -113 60 -190 163 -237 47 -22 63 -23 313 -26 147 -2
291 1 328 7 183 28 321 162 355 345 6 36 9 164 7 335 -4 308 -6 315 -76 393
-52 58 -121 88 -202 88 -47 0 -79 -7 -115 -24z"/>
</g>
</svg>
